inDegrees=no
num_controls=7
num_derivatives=13
num_iterations=106
num_multipliers=7
num_parameters=0
num_slacks=7
num_states=26
objective=5.202711
objective_accelerations=0.520024
objective_balance=0.039803
objective_effort=0.212017
objective_height=4.384000
objective_ligament=0.046867
solver_duration=1187.617697
status=Solve_Succeeded
success=true
DataType=double
version=3
OpenSimVersion=4.4-2022-07-23-0e9fedc
endheader
time	/jointset/ground_pelvis/pelvis_tilt/value	/jointset/ground_pelvis/pelvis_tx/value	/jointset/ground_pelvis/pelvis_ty/value	/jointset/hip_l/hip_flexion_l/value	/jointset/hip_l/hip_adduction_l/value	/jointset/hip_l/hip_rotation_l/value	/jointset/back/lumbar_extension/value	/jointset/patellofemoral_l/patellar_flexion_l/value	/jointset/knee_l/knee_flexion_l/value	/jointset/knee_l/knee_adduction_l/value	/jointset/knee_l/knee_rotation_l/value	/jointset/ankle_l/ankle_angle_l/value	/jointset/subtalar_l/subtalar_angle_l/value	/jointset/ground_pelvis/pelvis_tilt/speed	/jointset/ground_pelvis/pelvis_tx/speed	/jointset/ground_pelvis/pelvis_ty/speed	/jointset/hip_l/hip_flexion_l/speed	/jointset/hip_l/hip_adduction_l/speed	/jointset/hip_l/hip_rotation_l/speed	/jointset/back/lumbar_extension/speed	/jointset/patellofemoral_l/patellar_flexion_l/speed	/jointset/knee_l/knee_flexion_l/speed	/jointset/knee_l/knee_adduction_l/speed	/jointset/knee_l/knee_rotation_l/speed	/jointset/ankle_l/ankle_angle_l/speed	/jointset/subtalar_l/subtalar_angle_l/speed	/forceset/tau_hip_flexion_l	/forceset/tau_hip_adduction_l	/forceset/tau_hip_rotation_l	/forceset/tau_knee_flexion_l	/forceset/tau_ankle_angle_l	/forceset/tau_subtalar_angle_l	/forceset/tau_lumbar_extension	lambda_cid13_p0	lambda_cid13_p1	lambda_cid13_p2	lambda_cid13_p3	lambda_cid13_p4	lambda_cid13_p5	lambda_cid14_p0	/jointset/ground_pelvis/pelvis_tilt/accel	/jointset/ground_pelvis/pelvis_tx/accel	/jointset/ground_pelvis/pelvis_ty/accel	/jointset/hip_l/hip_flexion_l/accel	/jointset/hip_l/hip_adduction_l/accel	/jointset/hip_l/hip_rotation_l/accel	/jointset/back/lumbar_extension/accel	/jointset/patellofemoral_l/patellar_flexion_l/accel	/jointset/knee_l/knee_flexion_l/accel	/jointset/knee_l/knee_adduction_l/accel	/jointset/knee_l/knee_rotation_l/accel	/jointset/ankle_l/ankle_angle_l/accel	/jointset/subtalar_l/subtalar_angle_l/accel	gamma_cid13_p0	gamma_cid13_p1	gamma_cid13_p2	gamma_cid13_p3	gamma_cid13_p4	gamma_cid13_p5	gamma_cid14_p0
1	-0.3073054108285259	0.03721517943877645	0.6539917019060343	1.303128655371087	-0.4981019341653759	-0.02097245986205274	-0.2617915369273299	1.323980110858836	1.323980110858937	-0.1162356364432492	-0.1745258038221535	0.4362890356806072	0.09413646374564623	-0.01739432899875248	0.00832162541502094	-0.0001135640613031715	0.003726767350349902	-0.002728722825562184	0.001113795160392948	-5.745833755030618e-05	0.000111249910946751	0.0001112499109468937	-0.004250620093062795	-0.0001542486079588592	0.01298377511044268	0.006065351564509916	-0.1939103869466476	0.06175092147401706	-0.004210946362350317	-0.3374313820027707	-0.08036099852932696	0.02271433421799509	0.1934514119193416	-63.65123857309277	0.3718772242680969	0.6421302903564033	12.67389135438837	-618.8186377032102	-62.44613868411317	-3.070211549423617	0.9362150718176374	0.04216566766500592	1.516958480563704	-4.804870765607294	0.2654550633445406	-2.258460816134864	-0.0124375338387233	-4.986389284698324	-4.986389284698553	-0.3428756163573802	-0.01821046911870674	-1.747137865367603	-0.9447649661524077	2.976130441674665e-09	1.854680978880156e-08	-1.04070490230769e-08	4.944913513675624e-09	-7.380247832265153e-10	2.896836997857171e-08	1.327565027673702e-09
1.01	-0.3074332773009508	0.03730047407195239	0.6540662719060536	1.302926863005356	-0.4981152744557474	-0.02107580395648279	-0.2617919296719083	1.323732247145014	1.323732247145034	-0.1162924073959849	-0.174527383967833	0.4363317596500483	0.09415124172537834	-0.008179403752324113	0.008737963343816383	0.01502502079628067	-0.04407908682719849	6.632949311640237e-05	-0.02177230893041348	-2.167287960821106e-05	-0.04968251543308901	-0.04968251543308935	-0.00710366025877746	-0.0001507943092297757	-0.004440621739246085	-0.00310118446177305	-0.1938974321036424	0.06182133285062925	-0.004234065416763336	-0.3371942084133721	-0.08049036752328861	0.02273416137560953	0.1934322183659682	-63.6806040832295	0.3620525770102044	0.6509562819772888	12.63451837563409	-618.6846238019212	-62.43420901861419	-3.077798315669959	0.9140650279078429	0.04146847909516363	1.511924735074949	-4.767520427149586	0.2873751262516375	-2.302144305932088	0.01149923886387692	-4.975647102695209	-4.975647102695116	-0.2565332308794747	0.01128068015656445	-1.740335952368205	-0.9013187751945952	-2.638176641213493e-09	1.137782613703379e-08	3.929997888458881e-08	6.510357746215734e-09	-1.120935464843626e-08	3.604148482367953e-08	-7.266433366729985e-09
1.02	-0.3074690077655278	0.03738995220913825	0.6542921510039922	1.302247196561196	-0.4981004952608957	-0.02140770091192644	-0.2617919820311783	1.322986490389074	1.322986490388977	-0.1163777117532965	-0.1745285981105909	0.4362001905797112	0.09407461017398494	0.001032872568195279	0.009158326217005649	0.03014825552257138	-0.09184804833758534	0.002895174216682606	-0.0445967770363669	1.061870845689097e-05	-0.09946735851468073	-0.09946735851468076	-0.009957300992533665	-8.104797899190734e-05	-0.02187483289287841	-0.01221655466119335	-0.193884477260663	0.06189174422720137	-0.004257184470772161	-0.3369570348239848	-0.08061973651726782	0.02275398853313418	0.1934130248125804	-63.71869514275211	0.3526688639622086	0.6609528608424078	12.62707411366658	-618.6812171050999	-62.40901420676339	-3.099964993560078	0.9356852866358726	0.04297065654370912	1.513888454305105	-4.797492232174951	0.272213544322307	-2.246133619163976	-0.01313630781424294	-4.984604832209611	-4.984604832209685	-0.3429957299655841	-0.004952062816355501	-1.749100726156376	-0.9345318007795204	-1.003768936193858e-08	-2.461130605907118e-09	8.948742394202679e-08	6.939673408813162e-09	-2.197365865354365e-08	3.799941406873778e-08	-1.674978844528915e-08
1.03	-0.3074126748826457	0.03748361357506828	0.654669127612756	1.301090214063657	-0.4980573102329934	-0.02196761643321303	-0.2617917860964877	1.321742934195036	1.32174293419497	-0.1164915890013096	-0.1745290410085432	0.4358940653823948	0.09390689398335604	0.01022817152010664	0.00957050372451947	0.04523872185512533	-0.1395229044019155	0.00574286091911464	-0.06738495669847626	2.272123046034625e-05	-0.1492420866678401	-0.1492420866678406	-0.012820087298347	-2.143380204352058e-05	-0.03936826347125738	-0.02133585797650634	-0.1936855561519161	0.06198696233038217	-0.004322640849511626	-0.3364237486449715	-0.08079576679590368	0.02280117224418904	0.1932322016233735	-63.7525047864278	0.3215378886002509	0.6848305467658569	12.66241176532856	-618.3698217215988	-62.39389244953513	-3.136877718084951	0.9106208573254941	0.03982628545335738	1.505367452982515	-4.748652369925043	0.2911820239284078	-2.294973229190647	0.007506481967502171	-4.973632457413697	-4.973632457413752	-0.2582196514502635	0.009361597785720203	-1.752173535064201	-0.902019781322964	-1.745541846672322e-08	-1.636814829875799e-08	1.396797712152788e-07	7.357395922737701e-09	-3.274095219069083e-08	3.990514754236691e-08	-2.624221859205399e-08
